<mxfile host="app.diagrams.net" modified="2022-08-05T06:58:52.727Z" agent="5.0 (X11; Linux x86_64) AppleWebKit/537.36 (KHTML, like Gecko) Chrome/103.0.0.0 Safari/537.36" etag="17QprMOmFXepmfVgfTX6" version="20.2.0" type="github">
  <diagram id="0pvAi5GxD__PONMoXWZV" name="第 1 页">
    <mxGraphModel dx="1422" dy="748" grid="1" gridSize="10" guides="1" tooltips="1" connect="1" arrows="1" fold="1" page="1" pageScale="1" pageWidth="827" pageHeight="1169" math="0" shadow="0">
      <root>
        <mxCell id="0" />
        <mxCell id="1" parent="0" />
        <mxCell id="BS5RwrDTGoxRgeFuEKbe-5" style="edgeStyle=orthogonalEdgeStyle;rounded=0;orthogonalLoop=1;jettySize=auto;html=1;exitX=1;exitY=0.5;exitDx=0;exitDy=0;" edge="1" parent="1" source="BS5RwrDTGoxRgeFuEKbe-1" target="BS5RwrDTGoxRgeFuEKbe-2">
          <mxGeometry relative="1" as="geometry" />
        </mxCell>
        <mxCell id="BS5RwrDTGoxRgeFuEKbe-1" value="组织管理员后台添加签署企业CLA信息" style="rounded=0;whiteSpace=wrap;html=1;" vertex="1" parent="1">
          <mxGeometry x="84" y="210" width="120" height="60" as="geometry" />
        </mxCell>
        <mxCell id="BS5RwrDTGoxRgeFuEKbe-6" style="edgeStyle=orthogonalEdgeStyle;rounded=0;orthogonalLoop=1;jettySize=auto;html=1;exitX=1;exitY=0.5;exitDx=0;exitDy=0;entryX=0;entryY=0.5;entryDx=0;entryDy=0;" edge="1" parent="1" source="BS5RwrDTGoxRgeFuEKbe-2" target="BS5RwrDTGoxRgeFuEKbe-3">
          <mxGeometry relative="1" as="geometry" />
        </mxCell>
        <mxCell id="BS5RwrDTGoxRgeFuEKbe-2" value="被添加企业收到添加完成通知邮件" style="rounded=0;whiteSpace=wrap;html=1;" vertex="1" parent="1">
          <mxGeometry x="264" y="210" width="120" height="60" as="geometry" />
        </mxCell>
        <mxCell id="BS5RwrDTGoxRgeFuEKbe-7" style="edgeStyle=orthogonalEdgeStyle;rounded=0;orthogonalLoop=1;jettySize=auto;html=1;exitX=1;exitY=0.5;exitDx=0;exitDy=0;entryX=0;entryY=0.5;entryDx=0;entryDy=0;" edge="1" parent="1" source="BS5RwrDTGoxRgeFuEKbe-3" target="BS5RwrDTGoxRgeFuEKbe-4">
          <mxGeometry relative="1" as="geometry" />
        </mxCell>
        <mxCell id="BS5RwrDTGoxRgeFuEKbe-3" value="被添加企业管理员登录企业管理员页面" style="rounded=0;whiteSpace=wrap;html=1;" vertex="1" parent="1">
          <mxGeometry x="444" y="210" width="120" height="60" as="geometry" />
        </mxCell>
        <mxCell id="BS5RwrDTGoxRgeFuEKbe-4" value="手动添加需要签署的员工CLA" style="rounded=0;whiteSpace=wrap;html=1;" vertex="1" parent="1">
          <mxGeometry x="624" y="210" width="120" height="60" as="geometry" />
        </mxCell>
      </root>
    </mxGraphModel>
  </diagram>
</mxfile>
